<svg xmlns="http://www.w3.org/2000/svg" viewBox="0 0 900 525" role="img">
<metadata data-source-sha256="3f9d3db306b83ad936abc2b56397457b8cdc36b6f03bc9041a075ddf85131218">Generated from frozen Stage D CSV data.</metadata>
<defs><pattern id="h0" width="6" height="6" patternUnits="userSpaceOnUse"><path d="M0,6 L6,0" stroke="#1d4e89" stroke-width="1"/></pattern><pattern id="h1" width="6" height="6" patternUnits="userSpaceOnUse"><path d="M0,0 L6,6" stroke="#9c2f2f" stroke-width="1"/></pattern></defs>
<style>.title{font:600 13px sans-serif}.unit,.tick,.method{font:10px sans-serif}.legend{font:11px sans-serif}.axis{stroke:#222;stroke-width:1.2;fill:none}.ci{stroke:#111;stroke-width:1.5}.m0{fill:url(#h0);stroke:#1d4e89}.m1{fill:url(#h1);stroke:#9c2f2f}.m2{fill:#b8a13a;stroke:#554b18}.m3{fill:#5d9c64;stroke:#28572e}.line0{fill:none;stroke:#1d4e89;stroke-width:2}.line1{fill:none;stroke:#9c2f2f;stroke-width:2;stroke-dasharray:6 3}.line2{fill:none;stroke:#8a731e;stroke-width:2;stroke-dasharray:2 3}.line3{fill:none;stroke:#397443;stroke-width:2;stroke-dasharray:9 3 2 3}.point0{fill:#fff;stroke:#1d4e89;stroke-width:2}.point1{fill:#fff;stroke:#9c2f2f;stroke-width:2}.point2{fill:#fff;stroke:#8a731e;stroke-width:2}.point3{fill:#fff;stroke:#397443;stroke-width:2}</style><text x="450" y="28" text-anchor="middle" class="title">End-to-end runtime scaling</text><text x="450" y="46" text-anchor="middle" class="unit">median wall-clock seconds; five sequential repetitions</text><line x1="75" y1="430" x2="850" y2="430" class="axis"/><line x1="75" y1="70" x2="75" y2="430" class="axis"/><polyline points="75,419.5550298072944 333.3333333333333,405.20068891046265 850,361.1048764144788" class="line0"/><circle cx="75" cy="419.5550298072944" r="5" class="point0"/><circle cx="333.3333333333333" cy="405.20068891046265" r="5" class="point0"/><circle cx="850" cy="361.1048764144788" r="5" class="point0"/><text x="110" y="475" class="legend">1. Conditioned Riemannian</text><polyline points="75,413.48626821731006 333.3333333333333,412.1148179952233 850,373.6274304772113" class="line1"/><circle cx="75" cy="413.48626821731006" r="5" class="point1"/><circle cx="333.3333333333333" cy="412.1148179952233" r="5" class="point1"/><circle cx="850" cy="373.6274304772113" r="5" class="point1"/><text x="310" y="475" class="legend">2. Goal+Projection</text><polyline points="75,402.709344895914 333.3333333333333,400.42331217430234 850,369.6841703942121" class="line2"/><circle cx="75" cy="402.709344895914" r="5" class="point2"/><circle cx="333.3333333333333" cy="400.42331217430234" r="5" class="point2"/><circle cx="850" cy="369.6841703942121" r="5" class="point2"/><text x="510" y="475" class="legend">3. ORCA/RVO2</text><polyline points="75,336.0914074995642 333.3333333333333,284.2252178085866 850,90" class="line3"/><circle cx="75" cy="336.0914074995642" r="5" class="point3"/><circle cx="333.3333333333333" cy="284.2252178085866" r="5" class="point3"/><circle cx="850" cy="90" r="5" class="point3"/><text x="710" y="475" class="legend">4. PySocialForce</text><text x="75" y="448" text-anchor="middle" class="tick">50</text><text x="333.3333333333333" y="448" text-anchor="middle" class="tick">100</text><text x="850" y="448" text-anchor="middle" class="tick">200</text><text x="450" y="505" text-anchor="middle" class="unit">Population N</text><text x="65" y="75" text-anchor="end" class="tick">23.602 s</text><text x="65" y="430" text-anchor="end" class="tick">0</text></svg>
